<svg width="888" height="590" viewBox="0 0 888 590" fill="none" xmlns="http://www.w3.org/2000/svg">
<g filter="url(#filter0_i_191_99)">
<path d="M69.1789 34.9253C69.1789 53.843 53.843 69.1789 34.9253 69.1789C16.0075 69.1789 0.67164 53.843 0.67164 34.9253C0.67164 16.0075 16.0075 0.67164 34.9253 0.67164C53.843 0.67164 69.1789 16.0075 69.1789 34.9253Z" fill="#F5F5F5" stroke="#134855" stroke-width="1.34328"/>
<path d="M186.144 34.9253C186.144 53.843 170.808 69.1789 151.89 69.1789C132.972 69.1789 117.636 53.843 117.636 34.9253C117.636 16.0075 132.972 0.67164 151.89 0.67164C170.808 0.67164 186.144 16.0075 186.144 34.9253Z" fill="#F5F5F5" stroke="#134855" stroke-width="1.34328"/>
<path d="M303.009 34.9253C303.009 53.843 287.673 69.1789 268.755 69.1789C249.837 69.1789 234.502 53.843 234.502 34.9253C234.502 16.0075 249.837 0.67164 268.755 0.67164C287.673 0.67164 303.009 16.0075 303.009 34.9253Z" fill="#F5F5F5" stroke="#134855" stroke-width="1.34328"/>
<path d="M419.874 34.9253C419.874 53.843 404.538 69.1789 385.621 69.1789C366.703 69.1789 351.367 53.843 351.367 34.9253C351.367 16.0075 366.703 0.67164 385.621 0.67164C404.538 0.67164 419.874 16.0075 419.874 34.9253Z" fill="#F5F5F5" stroke="#134855" stroke-width="1.34328"/>
<path d="M536.739 34.9253C536.739 53.843 521.404 69.1789 502.486 69.1789C483.568 69.1789 468.232 53.843 468.232 34.9253C468.232 16.0075 483.568 0.67164 502.486 0.67164C521.404 0.67164 536.739 16.0075 536.739 34.9253Z" fill="#F5F5F5" stroke="#134855" stroke-width="1.34328"/>
<path d="M653.605 34.9253C653.605 53.843 638.269 69.1789 619.351 69.1789C600.433 69.1789 585.097 53.843 585.097 34.9253C585.097 16.0075 600.433 0.67164 619.351 0.67164C638.269 0.67164 653.605 16.0075 653.605 34.9253Z" fill="#F5F5F5" stroke="#134855" stroke-width="1.34328"/>
<path d="M770.47 34.9253C770.47 53.843 755.134 69.1789 736.216 69.1789C717.299 69.1789 701.963 53.843 701.963 34.9253C701.963 16.0075 717.299 0.67164 736.216 0.67164C755.134 0.67164 770.47 16.0075 770.47 34.9253Z" fill="#F5F5F5" stroke="#134855" stroke-width="1.34328"/>
<path d="M69.1789 159.85C69.1789 178.768 53.843 194.104 34.9253 194.104C16.0075 194.104 0.67164 178.768 0.67164 159.85C0.67164 140.932 16.0075 125.596 34.9253 125.596C53.843 125.596 69.1789 140.932 69.1789 159.85Z" fill="#F5F5F5" stroke="#134855" stroke-width="1.34328"/>
<path d="M186.144 159.85C186.144 178.768 170.808 194.104 151.89 194.104C132.972 194.104 117.636 178.768 117.636 159.85C117.636 140.932 132.972 125.596 151.89 125.596C170.808 125.596 186.144 140.932 186.144 159.85Z" fill="#F5F5F5" stroke="#134855" stroke-width="1.34328"/>
<path d="M303.009 159.85C303.009 178.768 287.673 194.104 268.755 194.104C249.837 194.104 234.502 178.768 234.502 159.85C234.502 140.932 249.837 125.596 268.755 125.596C287.673 125.596 303.009 140.932 303.009 159.85Z" fill="#F5F5F5" stroke="#134855" stroke-width="1.34328"/>
<path d="M419.874 159.85C419.874 178.768 404.538 194.104 385.621 194.104C366.703 194.104 351.367 178.768 351.367 159.85C351.367 140.932 366.703 125.596 385.621 125.596C404.538 125.596 419.874 140.932 419.874 159.85Z" fill="#F5F5F5" stroke="#134855" stroke-width="1.34328"/>
<path d="M536.739 159.85C536.739 178.768 521.404 194.104 502.486 194.104C483.568 194.104 468.232 178.768 468.232 159.85C468.232 140.932 483.568 125.596 502.486 125.596C521.404 125.596 536.739 140.932 536.739 159.85Z" fill="#F5F5F5" stroke="#134855" stroke-width="1.34328"/>
<path d="M653.605 159.85C653.605 178.768 638.269 194.104 619.351 194.104C600.433 194.104 585.097 178.768 585.097 159.85C585.097 140.932 600.433 125.596 619.351 125.596C638.269 125.596 653.605 140.932 653.605 159.85Z" fill="#F5F5F5" stroke="#134855" stroke-width="1.34328"/>
<path d="M770.47 159.85C770.47 178.768 755.134 194.104 736.216 194.104C717.299 194.104 701.963 178.768 701.963 159.85C701.963 140.932 717.299 125.596 736.216 125.596C755.134 125.596 770.47 140.932 770.47 159.85Z" fill="#F5F5F5" stroke="#134855" stroke-width="1.34328"/>
<path d="M69.1789 286.119C69.1789 305.036 53.843 320.372 34.9253 320.372C16.0075 320.372 0.67164 305.036 0.67164 286.119C0.67164 267.201 16.0075 251.865 34.9253 251.865C53.843 251.865 69.1789 267.201 69.1789 286.119Z" fill="#F5F5F5" stroke="#134855" stroke-width="1.34328"/>
<path d="M186.144 286.119C186.144 305.036 170.808 320.372 151.89 320.372C132.972 320.372 117.636 305.036 117.636 286.119C117.636 267.201 132.972 251.865 151.89 251.865C170.808 251.865 186.144 267.201 186.144 286.119Z" fill="#F5F5F5" stroke="#134855" stroke-width="1.34328"/>
<path d="M303.009 286.119C303.009 305.036 287.673 320.372 268.755 320.372C249.837 320.372 234.502 305.036 234.502 286.119C234.502 267.201 249.837 251.865 268.755 251.865C287.673 251.865 303.009 267.201 303.009 286.119Z" fill="#F5F5F5" stroke="#134855" stroke-width="1.34328"/>
<path d="M419.874 286.119C419.874 305.036 404.538 320.372 385.621 320.372C366.703 320.372 351.367 305.036 351.367 286.119C351.367 267.201 366.703 251.865 385.621 251.865C404.538 251.865 419.874 267.201 419.874 286.119Z" fill="#F5F5F5" stroke="#134855" stroke-width="1.34328"/>
<path d="M536.739 286.119C536.739 305.036 521.404 320.372 502.486 320.372C483.568 320.372 468.232 305.036 468.232 286.119C468.232 267.201 483.568 251.865 502.486 251.865C521.404 251.865 536.739 267.201 536.739 286.119Z" fill="#F5F5F5" stroke="#134855" stroke-width="1.34328"/>
<path d="M653.605 286.119C653.605 305.036 638.269 320.372 619.351 320.372C600.433 320.372 585.097 305.036 585.097 286.119C585.097 267.201 600.433 251.865 619.351 251.865C638.269 251.865 653.605 267.201 653.605 286.119Z" fill="#F5F5F5" stroke="#134855" stroke-width="1.34328"/>
<path d="M770.47 286.119C770.47 305.036 755.134 320.372 736.216 320.372C717.299 320.372 701.963 305.036 701.963 286.119C701.963 267.201 717.299 251.865 736.216 251.865C755.134 251.865 770.47 267.201 770.47 286.119Z" fill="#F5F5F5" stroke="#134855" stroke-width="1.34328"/>
<path d="M69.1789 412.387C69.1789 431.305 53.843 446.641 34.9253 446.641C16.0075 446.641 0.67164 431.305 0.67164 412.387C0.67164 393.469 16.0075 378.134 34.9253 378.134C53.843 378.134 69.1789 393.469 69.1789 412.387Z" fill="#F5F5F5" stroke="#134855" stroke-width="1.34328"/>
<path d="M186.144 412.387C186.144 431.305 170.808 446.641 151.89 446.641C132.972 446.641 117.636 431.305 117.636 412.387C117.636 393.469 132.972 378.134 151.89 378.134C170.808 378.134 186.144 393.469 186.144 412.387Z" fill="#F5F5F5" stroke="#134855" stroke-width="1.34328"/>
<path d="M303.009 412.387C303.009 431.305 287.673 446.641 268.755 446.641C249.838 446.641 234.502 431.305 234.502 412.387C234.502 393.469 249.838 378.134 268.755 378.134C287.673 378.134 303.009 393.469 303.009 412.387Z" fill="#F5F5F5" stroke="#134855" stroke-width="1.34328"/>
<path d="M419.874 412.387C419.874 431.305 404.538 446.641 385.621 446.641C366.703 446.641 351.367 431.305 351.367 412.387C351.367 393.469 366.703 378.134 385.621 378.134C404.538 378.134 419.874 393.469 419.874 412.387Z" fill="#F5F5F5" stroke="#134855" stroke-width="1.34328"/>
<path d="M536.739 412.387C536.739 431.305 521.404 446.641 502.486 446.641C483.568 446.641 468.232 431.305 468.232 412.387C468.232 393.469 483.568 378.134 502.486 378.134C521.404 378.134 536.739 393.469 536.739 412.387Z" fill="#F5F5F5" stroke="#134855" stroke-width="1.34328"/>
<path d="M653.605 412.387C653.605 431.305 638.269 446.641 619.351 446.641C600.433 446.641 585.097 431.305 585.097 412.387C585.097 393.469 600.433 378.134 619.351 378.134C638.269 378.134 653.605 393.469 653.605 412.387Z" fill="#F5F5F5" stroke="#134855" stroke-width="1.34328"/>
<path d="M770.47 412.387C770.47 431.305 755.134 446.641 736.216 446.641C717.299 446.641 701.963 431.305 701.963 412.387C701.963 393.469 717.299 378.134 736.216 378.134C755.134 378.134 770.47 393.469 770.47 412.387Z" fill="#F5F5F5" stroke="#134855" stroke-width="1.34328"/>
<path d="M69.1789 538.655C69.1789 557.572 53.843 572.908 34.9253 572.908C16.0075 572.908 0.67164 557.572 0.67164 538.655C0.67164 519.737 16.0075 504.401 34.9253 504.401C53.843 504.401 69.1789 519.737 69.1789 538.655Z" fill="#F5F5F5" stroke="#134855" stroke-width="1.34328"/>
<path d="M186.144 538.655C186.144 557.572 170.808 572.908 151.89 572.908C132.972 572.908 117.636 557.572 117.636 538.655C117.636 519.737 132.972 504.401 151.89 504.401C170.808 504.401 186.144 519.737 186.144 538.655Z" fill="#F5F5F5" stroke="#134855" stroke-width="1.34328"/>
<path d="M303.009 538.655C303.009 557.572 287.673 572.908 268.755 572.908C249.837 572.908 234.502 557.572 234.502 538.655C234.502 519.737 249.837 504.401 268.755 504.401C287.673 504.401 303.009 519.737 303.009 538.655Z" fill="#F5F5F5" stroke="#134855" stroke-width="1.34328"/>
<path d="M419.874 538.655C419.874 557.572 404.538 572.908 385.621 572.908C366.703 572.908 351.367 557.572 351.367 538.655C351.367 519.737 366.703 504.401 385.621 504.401C404.538 504.401 419.874 519.737 419.874 538.655Z" fill="#F5F5F5" stroke="#134855" stroke-width="1.34328"/>
<path d="M536.739 538.655C536.739 557.572 521.404 572.908 502.486 572.908C483.568 572.908 468.232 557.572 468.232 538.655C468.232 519.737 483.568 504.401 502.486 504.401C521.404 504.401 536.739 519.737 536.739 538.655Z" fill="#F5F5F5" stroke="#134855" stroke-width="1.34328"/>
<path d="M653.605 538.655C653.605 557.572 638.269 572.908 619.351 572.908C600.433 572.908 585.097 557.572 585.097 538.655C585.097 519.737 600.433 504.401 619.351 504.401C638.269 504.401 653.605 519.737 653.605 538.655Z" fill="#F5F5F5" stroke="#134855" stroke-width="1.34328"/>
<path d="M770.47 538.655C770.47 557.572 755.134 572.908 736.216 572.908C717.299 572.908 701.963 557.572 701.963 538.655C701.963 519.737 717.299 504.401 736.216 504.401C755.134 504.401 770.47 519.737 770.47 538.655Z" fill="#F5F5F5" stroke="#134855" stroke-width="1.34328"/>
<path d="M887.335 34.9253C887.335 53.843 872 69.1789 853.082 69.1789C834.164 69.1789 818.828 53.843 818.828 34.9253C818.828 16.0075 834.164 0.67164 853.082 0.67164C872 0.67164 887.335 16.0075 887.335 34.9253Z" fill="#F5F5F5" stroke="#134855" stroke-width="1.34328"/>
<path d="M887.335 159.85C887.335 178.768 872 194.104 853.082 194.104C834.164 194.104 818.828 178.768 818.828 159.85C818.828 140.932 834.164 125.596 853.082 125.596C872 125.596 887.335 140.932 887.335 159.85Z" fill="#F5F5F5" stroke="#134855" stroke-width="1.34328"/>
<path d="M887.335 286.119C887.335 305.036 872 320.372 853.082 320.372C834.164 320.372 818.828 305.036 818.828 286.119C818.828 267.201 834.164 251.865 853.082 251.865C872 251.865 887.335 267.201 887.335 286.119Z" fill="#F5F5F5" stroke="#134855" stroke-width="1.34328"/>
<path d="M887.335 412.387C887.335 431.305 871.999 446.641 853.082 446.641C834.164 446.641 818.828 431.305 818.828 412.387C818.828 393.469 834.164 378.134 853.082 378.134C871.999 378.134 887.335 393.469 887.335 412.387Z" fill="#F5F5F5" stroke="#134855" stroke-width="1.34328"/>
<path d="M887.335 538.655C887.335 557.572 872 572.908 853.082 572.908C834.164 572.908 818.828 557.572 818.828 538.655C818.828 519.737 834.164 504.401 853.082 504.401C872 504.401 887.335 519.737 887.335 538.655Z" fill="#F5F5F5" stroke="#134855" stroke-width="1.34328"/>
</g>
<path d="M122.982 199.765C135.962 211.334 149.295 222.513 162.584 233.654C168.738 238.812 174.881 243.964 180.976 249.142C194.585 260.713 201.208 274.374 201.287 287.873C201.366 301.374 194.902 315.174 181.426 327.023C177.042 330.878 172.667 334.739 168.293 338.598C155.185 350.166 142.098 361.717 128.841 373.035C115.932 384.046 110.597 398.407 109.205 415.323C106.388 449.553 106.384 456.249 106.384 476.766C106.384 483.14 106.369 489.518 106.353 495.899C106.32 509.951 106.285 524.013 106.418 538.083L109.104 538.057L106.418 538.084C106.654 562.788 123.754 584.091 145.969 586.696C169.631 589.462 190.494 573.963 195.871 549.434C200.588 527.893 205.137 506.31 209.682 484.743C211.952 473.965 214.223 463.192 216.514 452.43V452.429C217.406 448.226 218.279 444.025 219.15 439.833C221.826 426.96 224.488 414.145 227.667 401.471C232.102 383.838 243.884 372.572 257.202 368.908C270.493 365.252 285.637 369.07 297.13 382.311C308.321 395.221 319.027 408.548 329.769 421.92C335.811 429.441 341.864 436.977 348.021 444.46L348.023 444.462C359.082 457.893 377.907 463.05 394.17 460.028C403.252 458.359 410.748 454.934 416.637 449.336C422.518 443.744 426.606 436.167 429.185 426.513L429.186 426.509C434.702 405.742 425.6 388.378 411.257 374.646C407.155 370.712 403.047 366.788 398.942 362.867C386.641 351.116 374.36 339.386 362.292 327.414L362.291 327.412C348.568 313.81 339.513 292.729 345.195 274.843C355.6 242.109 396.272 234.21 419.133 262.293C425.132 269.662 430.307 275.996 435.243 282.04C444.455 293.299 453.635 304.585 462.783 315.896C480.203 337.449 507.667 340.912 525.255 331.403C542.454 322.105 555.707 301.261 552.149 280.295C551.014 273.611 548.19 264.713 541.777 256.932C535.315 249.088 525.335 242.543 510.238 240.473C498.204 238.822 486.842 237.203 475.844 235.637C447.916 231.658 422.321 228.012 393.964 225.014C384.507 224.008 375.123 227.811 366.894 233.462C358.633 239.136 351.242 246.871 345.657 254.279C339.929 261.864 334.137 269.436 328.338 277.018C319.301 288.832 310.247 300.668 301.393 312.608L301.392 312.609C295.572 320.474 289.145 326.115 282.047 329.253C274.993 332.372 267.09 333.102 258.112 330.852C249.137 328.598 242.269 324.221 237.121 318.052C231.947 311.854 228.404 303.717 226.335 293.812C220.447 265.658 214.42 237.517 208.394 209.38C204.302 190.277 200.212 171.177 196.165 152.075V152.074C192.488 134.757 183.126 122.263 167.537 115.987C146.414 107.505 123.839 116.644 112.594 137.176V137.178C101.329 157.79 105.115 183.817 122.98 199.765H122.982Z" stroke="#134855" stroke-width="5.37312"/>
<defs>
<filter id="filter0_i_191_99" x="0" y="0" width="888.007" height="578.953" filterUnits="userSpaceOnUse" color-interpolation-filters="sRGB">
<feFlood flood-opacity="0" result="BackgroundImageFix"/>
<feBlend mode="normal" in="SourceGraphic" in2="BackgroundImageFix" result="shape"/>
<feColorMatrix in="SourceAlpha" type="matrix" values="0 0 0 0 0 0 0 0 0 0 0 0 0 0 0 0 0 0 127 0" result="hardAlpha"/>
<feOffset dy="5.37312"/>
<feGaussianBlur stdDeviation="2.68656"/>
<feComposite in2="hardAlpha" operator="arithmetic" k2="-1" k3="1"/>
<feColorMatrix type="matrix" values="0 0 0 0 0 0 0 0 0 0 0 0 0 0 0 0 0 0 0.25 0"/>
<feBlend mode="normal" in2="shape" result="effect1_innerShadow_191_99"/>
</filter>
</defs>
</svg>
