<svg width="24" height="24" viewBox="0 0 24 24" fill="none" xmlns="http://www.w3.org/2000/svg">
<path d="M15.3744 12.7588L14.8288 11.9208L14.8148 11.9298L14.8012 11.9394L15.3744 12.7588ZM15.3744 11.4687L14.7814 12.2739L14.826 12.3068L14.874 12.3345L15.3744 11.4687ZM10.2037 7.66122L10.7966 6.85597L10.7684 6.8352L10.7388 6.81644L10.2037 7.66122ZM9.11966 8.22991L10.1197 8.22701L10.1196 8.21826L10.1194 8.2095L9.11966 8.22991ZM9.14134 15.709L8.14134 15.7119L8.14142 15.7402L8.14311 15.7684L9.14134 15.709ZM10.2651 16.3323L10.7493 17.2072L10.7952 17.1818L10.8382 17.1517L10.2651 16.3323ZM12 20C7.58172 20 4 16.4183 4 12H2C2 17.5228 6.47715 22 12 22V20ZM20 12C20 16.4183 16.4183 20 12 20V22C17.5228 22 22 17.5228 22 12H20ZM12 4C16.4183 4 20 7.58172 20 12H22C22 6.47715 17.5228 2 12 2V4ZM12 2C6.47715 2 2 6.47715 2 12H4C4 7.58172 7.58172 4 12 4V2ZM15.9199 13.5969C16.3323 13.3285 16.8704 12.8393 16.8694 12.0938C16.8683 11.3258 16.3021 10.8499 15.8747 10.6029L14.874 12.3345C14.9677 12.3886 14.9787 12.4133 14.9586 12.3878C14.9315 12.3532 14.8696 12.2512 14.8694 12.0965C14.8692 11.9454 14.928 11.8534 14.9423 11.8342C14.952 11.821 14.9295 11.8552 14.8288 11.9208L15.9199 13.5969ZM15.9673 10.6634L10.7966 6.85597L9.61072 8.46646L14.7814 12.2739L15.9673 10.6634ZM10.7388 6.81644C10.286 6.52965 9.64347 6.36117 9.03218 6.6466C8.36565 6.95781 8.10714 7.62689 8.11987 8.25032L10.1194 8.2095C10.1185 8.16275 10.1285 8.19137 10.0938 8.25775C10.0552 8.33159 9.98183 8.41046 9.87832 8.45879C9.67864 8.55202 9.5853 8.45326 9.66854 8.50599L10.7388 6.81644ZM8.11966 8.23281L8.14134 15.7119L10.1413 15.7061L10.1197 8.22701L8.11966 8.23281ZM8.14311 15.7684C8.17339 16.2771 8.35111 16.9731 9.00854 17.3242C9.65564 17.6698 10.3249 17.4421 10.7493 17.2072L9.78087 15.4573C9.69245 15.5063 9.66333 15.5057 9.68777 15.5024C9.72022 15.4979 9.82562 15.4933 9.95074 15.5601C10.0775 15.6278 10.1348 15.7209 10.1513 15.7559C10.1634 15.7818 10.146 15.758 10.1396 15.6496L8.14311 15.7684ZM10.8382 17.1517L15.9475 13.5783L14.8012 11.9394L9.69195 15.5128L10.8382 17.1517Z" fill="black"/>
</svg>
